{
  "accessors": [
    {
      "bufferView": 1,
      "componentType": 5126,
      "count": 29320,
      "max": [
        0.5881410837173462,
        0.06708168983459473,
        1.4477053880691528
      ],
      "min": [
        -0.527220606803894,
        -1.2296006679534912,
        -1.2610788345336914
      ],
      "type": "VEC3"
    },
    {
      "bufferView": 1,
      "byteOffset": 351840,
      "componentType": 5126,
      "count": 29320,
      "max": [
        0.9999344944953918,
        0.9999595880508423,
        1.0
      ],
      "min": [
        -0.9999098181724548,
        -0.9999777674674988,
        -1.0
      ],
      "type": "VEC3"
    },
    {
      "bufferView": 0,
      "componentType": 5125,
      "count": 167097,
      "type": "SCALAR"
    }
  ],
  "asset": {
    "extras": {
      "author": "labraysien1 (https://sketchfab.com/labraysien1)",
      "license": "CC-BY-4.0 (http://creativecommons.org/licenses/by/4.0/)",
      "source": "https://sketchfab.com/3d-models/fontaine-yoda-cb9eb93e3d6f4db1bf3da911384a4e02",
      "title": "Fontaine Yoda"
    },
    "generator": "Sketchfab-12.66.0",
    "version": "2.0"
  },
  "bufferViews": [
    {
      "buffer": 0,
      "byteLength": 668388,
      "name": "floatBufferViews",
      "target": 34963
    },
    {
      "buffer": 0,
      "byteLength": 703680,
      "byteOffset": 668388,
      "byteStride": 12,
      "name": "floatBufferViews",
      "target": 34962
    }
  ],
  "buffers": [
    {
      "byteLength": 1372068,
      "uri": "scene.bin"
    }
  ],
  "materials": [
    {
      "doubleSided": true,
      "name": "Scene_-_Root",
      "pbrMetallicRoughness": {
        "baseColorFactor": [
          0.39195884146341464,
          0.39195884146341464,
          0.39195884146341464,
          1.0
        ],
        "metallicFactor": 0.09317835365853659,
        "roughnessFactor": 0.2151295731707317
      }
    }
  ],
  "meshes": [
    {
      "name": "Object_0",
      "primitives": [
        {
          "attributes": {
            "NORMAL": 1,
            "POSITION": 0
          },
          "indices": 2,
          "material": 0,
          "mode": 4
        }
      ]
    }
  ],
  "nodes": [
    {
      "children": [
        1
      ],
      "matrix": [
        1.0,
        0.0,
        0.0,
        0.0,
        0.0,
        2.220446049250313e-16,
        -1.0,
        0.0,
        0.0,
        1.0,
        2.220446049250313e-16,
        0.0,
        0.0,
        0.0,
        0.0,
        1.0
      ],
      "name": "Sketchfab_model"
    },
    {
      "children": [
        2
      ],
      "name": "fontaine_yodal.stl.cleaner.materialmerger.gles"
    },
    {
      "mesh": 0,
      "name": "Object_2"
    }
  ],
  "scene": 0,
  "scenes": [
    {
      "name": "Sketchfab_Scene",
      "nodes": [
        0
      ]
    }
  ]
}
