{
  "accessors": [
    {
      "bufferView": 2,
      "componentType": 5126,
      "count": 65532,
      "max": [
        2.2671451568603516,
        2.1945953369140625,
        0.075000010430812836
      ],
      "min": [
        -2.2660796642303467,
        -2.2843532562255859,
        -6.4880509376525879
      ],
      "type": "VEC3"
    },
    {
      "bufferView": 2,
      "byteOffset": 786384,
      "componentType": 5126,
      "count": 65532,
      "max": [
        0.99994587898254395,
        0.99993109703063965,
        1
      ],
      "min": [
        -0.99990713596343994,
        -0.99993109703063965,
        -1
      ],
      "type": "VEC3"
    },
    {
      "bufferView": 1,
      "componentType": 5126,
      "count": 65532,
      "max": [
        0.42620804905891418,
        1.2398000955581665
      ],
      "min": [
        -0.31672802567481995,
        -0.44000005722045898
      ],
      "type": "VEC2"
    },
    {
      "bufferView": 0,
      "componentType": 5125,
      "count": 274284,
      "max": [
        65531
      ],
      "min": [
        0
      ],
      "type": "SCALAR"
    },
    {
      "bufferView": 2,
      "byteOffset": 1572768,
      "componentType": 5126,
      "count": 65532,
      "max": [
        2.3834669589996338,
        2.3658647537231445,
        -3.0930197238922119
      ],
      "min": [
        -2.3823082447052002,
        -2.3699970245361328,
        -5.1258330345153809
      ],
      "type": "VEC3"
    },
    {
      "bufferView": 2,
      "byteOffset": 2359152,
      "componentType": 5126,
      "count": 65532,
      "max": [
        0.99999809265136719,
        1,
        1
      ],
      "min": [
        -0.99999809265136719,
        -1,
        -1
      ],
      "type": "VEC3"
    },
    {
      "bufferView": 1,
      "byteOffset": 524256,
      "componentType": 5126,
      "count": 65532,
      "max": [
        0.492046058177948,
        1.0255401134490967
      ],
      "min": [
        -0.491813063621521,
        -0.48593869805335999
      ],
      "type": "VEC2"
    },
    {
      "bufferView": 0,
      "byteOffset": 1097136,
      "componentType": 5125,
      "count": 280494,
      "max": [
        65531
      ],
      "min": [
        0
      ],
      "type": "SCALAR"
    },
    {
      "bufferView": 2,
      "byteOffset": 3145536,
      "componentType": 5126,
      "count": 65532,
      "max": [
        3.8942856788635254,
        5.4941921234130859,
        -0
      ],
      "min": [
        -2.5505073070526123,
        -5.5014700889587402,
        -3.6133718490600586
      ],
      "type": "VEC3"
    },
    {
      "bufferView": 2,
      "byteOffset": 3931920,
      "componentType": 5126,
      "count": 65532,
      "max": [
        0.9999995231628418,
        1,
        1
      ],
      "min": [
        -1,
        -0.99994015693664551,
        -1
      ],
      "type": "VEC3"
    },
    {
      "bufferView": 1,
      "byteOffset": 1048512,
      "componentType": 5126,
      "count": 65532,
      "max": [
        0.7709459662437439,
        1.0875067710876465
      ],
      "min": [
        -0.38784006237983704,
        -1.0875067710876465
      ],
      "type": "VEC2"
    },
    {
      "bufferView": 0,
      "byteOffset": 2219112,
      "componentType": 5125,
      "count": 274677,
      "max": [
        65531
      ],
      "min": [
        0
      ],
      "type": "SCALAR"
    },
    {
      "bufferView": 2,
      "byteOffset": 4718304,
      "componentType": 5126,
      "count": 65532,
      "max": [
        5.1475052833557129,
        6.987464427947998,
        -0
      ],
      "min": [
        -7.4319696426391602,
        -6.9874639511108398,
        -1.7876038551330566
      ],
      "type": "VEC3"
    },
    {
      "bufferView": 2,
      "byteOffset": 5504688,
      "componentType": 5126,
      "count": 65532,
      "max": [
        0.99999284744262695,
        0.99978363513946533,
        1
      ],
      "min": [
        -0.99998080730438232,
        -0.99993348121643066,
        -1
      ],
      "type": "VEC3"
    },
    {
      "bufferView": 1,
      "byteOffset": 1572768,
      "componentType": 5126,
      "count": 65532,
      "max": [
        1.0274263620376587,
        1.3840999603271484
      ],
      "min": [
        -1.5000002384185791,
        -1.3840999603271484
      ],
      "type": "VEC2"
    },
    {
      "bufferView": 0,
      "byteOffset": 3317820,
      "componentType": 5125,
      "count": 276963,
      "max": [
        65531
      ],
      "min": [
        0
      ],
      "type": "SCALAR"
    },
    {
      "bufferView": 2,
      "byteOffset": 6291072,
      "componentType": 5126,
      "count": 65532,
      "max": [
        7.4319696426391602,
        7.4302568435668945,
        -0
      ],
      "min": [
        -7.4319696426391602,
        -7.4302573204040527,
        -3.1234865188598633
      ],
      "type": "VEC3"
    },
    {
      "bufferView": 2,
      "byteOffset": 7077456,
      "componentType": 5126,
      "count": 65532,
      "max": [
        0.99999284744262695,
        0.99977457523345947,
        0.73844373226165771
      ],
      "min": [
        -0.99998080730438232,
        -0.99978303909301758,
        -1
      ],
      "type": "VEC3"
    },
    {
      "bufferView": 1,
      "byteOffset": 2097024,
      "componentType": 5126,
      "count": 65532,
      "max": [
        1.5000002384185791,
        1.4829633235931396
      ],
      "min": [
        -1.4106705188751221,
        -1.4829633235931396
      ],
      "type": "VEC2"
    },
    {
      "bufferView": 0,
      "byteOffset": 4425672,
      "componentType": 5125,
      "count": 277767,
      "max": [
        65531
      ],
      "min": [
        0
      ],
      "type": "SCALAR"
    },
    {
      "bufferView": 2,
      "byteOffset": 7863840,
      "componentType": 5126,
      "count": 6419,
      "max": [
        0.33239865303039551,
        0.32378751039505005,
        -2.2356698513031006
      ],
      "min": [
        -0.55041611194610596,
        -0.42825910449028015,
        -3.4926860332489014
      ],
      "type": "VEC3"
    },
    {
      "bufferView": 2,
      "byteOffset": 7940868,
      "componentType": 5126,
      "count": 6419,
      "max": [
        0.9492412805557251,
        0.93551188707351685,
        0.27756887674331665
      ],
      "min": [
        -0.99836152791976929,
        -0.86616992950439453,
        -0.69421577453613281
      ],
      "type": "VEC3"
    },
    {
      "bufferView": 1,
      "byteOffset": 2621280,
      "componentType": 5126,
      "count": 6419,
      "max": [
        0.016523402184247971,
        0.67553406953811646
      ],
      "min": [
        -0.01529315859079361,
        0.23009403049945831
      ],
      "type": "VEC2"
    },
    {
      "bufferView": 0,
      "byteOffset": 5536740,
      "componentType": 5125,
      "count": 27303,
      "max": [
        6418
      ],
      "min": [
        0
      ],
      "type": "SCALAR"
    },
    {
      "bufferView": 2,
      "byteOffset": 8017896,
      "componentType": 5126,
      "count": 4414,
      "max": [
        6.9204931259155273,
        6.9204931259155273,
        -0.10317198187112808
      ],
      "min": [
        -6.9204931259155273,
        -6.9204931259155273,
        -4.4092907905578613
      ],
      "type": "VEC3"
    },
    {
      "bufferView": 2,
      "byteOffset": 8070864,
      "componentType": 5126,
      "count": 4414,
      "max": [
        0.94196468591690063,
        0.95914530754089355,
        -0.24695852398872375
      ],
      "min": [
        -0.94196468591690063,
        -0.95914530754089355,
        -1
      ],
      "type": "VEC3"
    },
    {
      "bufferView": 3,
      "componentType": 5126,
      "count": 4414,
      "max": [
        1,
        0.73821067810058594,
        0.93928563594818115,
        1
      ],
      "min": [
        0.33567681908607483,
        -0.70311355590820312,
        -0.93928563594818115,
        1
      ],
      "type": "VEC4"
    },
    {
      "bufferView": 1,
      "byteOffset": 2672632,
      "componentType": 5126,
      "count": 4414,
      "max": [
        2.8707301616668701,
        2.870729923248291
      ],
      "min": [
        -2.8707301616668701,
        -2.870729923248291
      ],
      "type": "VEC2"
    },
    {
      "bufferView": 0,
      "byteOffset": 5645952,
      "componentType": 5125,
      "count": 19008,
      "max": [
        4413
      ],
      "min": [
        0
      ],
      "type": "SCALAR"
    }
  ],
  "asset": {
    "extras": {
      "author": "scadl (https://sketchfab.com/scadl)",
      "license": "CC-BY-4.0 (http://creativecommons.org/licenses/by/4.0/)",
      "source": "https://sketchfab.com/3d-models/fontain-6a1d1ab61a2f462e981bae781fb078e0",
      "title": "Fontain"
    },
    "generator": "Sketchfab-10.3.0",
    "version": "2.0"
  },
  "bufferViews": [
    {
      "buffer": 0,
      "byteLength": 5721984,
      "byteOffset": 0,
      "name": "floatBufferViews",
      "target": 34963
    },
    {
      "buffer": 0,
      "byteLength": 2707944,
      "byteOffset": 5721984,
      "byteStride": 8,
      "name": "floatBufferViews",
      "target": 34962
    },
    {
      "buffer": 0,
      "byteLength": 8123832,
      "byteOffset": 8429928,
      "byteStride": 12,
      "name": "floatBufferViews",
      "target": 34962
    },
    {
      "buffer": 0,
      "byteLength": 70624,
      "byteOffset": 16553760,
      "byteStride": 16,
      "name": "floatBufferViews",
      "target": 34962
    }
  ],
  "buffers": [
    {
      "byteLength": 16624384,
      "uri": "scene.bin"
    }
  ],
  "images": [
    {
      "uri": "textures/Marble_baseColor.jpeg"
    },
    {
      "uri": "textures/Water_baseColor.jpeg"
    },
    {
      "uri": "textures/Water_normal.png"
    }
  ],
  "materials": [
    {
      "doubleSided": true,
      "emissiveFactor": [
        0,
        0,
        0
      ],
      "name": "Marble",
      "pbrMetallicRoughness": {
        "baseColorFactor": [
          1,
          1,
          1,
          1
        ],
        "baseColorTexture": {
          "index": 0,
          "texCoord": 0
        },
        "metallicFactor": 0,
        "roughnessFactor": 1
      }
    },
    {
      "alphaMode": "BLEND",
      "doubleSided": true,
      "emissiveFactor": [
        0,
        0,
        0
      ],
      "name": "Water",
      "normalTexture": {
        "index": 2,
        "scale": 1,
        "texCoord": 0
      },
      "pbrMetallicRoughness": {
        "baseColorFactor": [
          1,
          1,
          1,
          0.67660926980000002
        ],
        "baseColorTexture": {
          "index": 1,
          "texCoord": 0
        },
        "metallicFactor": 0,
        "roughnessFactor": 1
      }
    }
  ],
  "meshes": [
    {
      "primitives": [
        {
          "attributes": {
            "NORMAL": 1,
            "POSITION": 0,
            "TEXCOORD_0": 2
          },
          "indices": 3,
          "material": 0,
          "mode": 4
        }
      ]
    },
    {
      "primitives": [
        {
          "attributes": {
            "NORMAL": 5,
            "POSITION": 4,
            "TEXCOORD_0": 6
          },
          "indices": 7,
          "material": 0,
          "mode": 4
        }
      ]
    },
    {
      "primitives": [
        {
          "attributes": {
            "NORMAL": 9,
            "POSITION": 8,
            "TEXCOORD_0": 10
          },
          "indices": 11,
          "material": 0,
          "mode": 4
        }
      ]
    },
    {
      "primitives": [
        {
          "attributes": {
            "NORMAL": 13,
            "POSITION": 12,
            "TEXCOORD_0": 14
          },
          "indices": 15,
          "material": 0,
          "mode": 4
        }
      ]
    },
    {
      "primitives": [
        {
          "attributes": {
            "NORMAL": 17,
            "POSITION": 16,
            "TEXCOORD_0": 18
          },
          "indices": 19,
          "material": 0,
          "mode": 4
        }
      ]
    },
    {
      "primitives": [
        {
          "attributes": {
            "NORMAL": 21,
            "POSITION": 20,
            "TEXCOORD_0": 22
          },
          "indices": 23,
          "material": 0,
          "mode": 4
        }
      ]
    },
    {
      "primitives": [
        {
          "attributes": {
            "NORMAL": 25,
            "POSITION": 24,
            "TANGENT": 26,
            "TEXCOORD_0": 27
          },
          "indices": 28,
          "material": 1,
          "mode": 4
        }
      ]
    }
  ],
  "nodes": [
    {
      "children": [
        1
      ],
      "name": "RootNode (gltf orientation matrix)",
      "rotation": [
        -0.70710678118654746,
        -0,
        -0,
        0.70710678118654757
      ]
    },
    {
      "children": [
        2
      ],
      "name": "RootNode (model correction matrix)"
    },
    {
      "children": [
        3
      ],
      "name": "root"
    },
    {
      "children": [
        4
      ],
      "matrix": [
        1,
        0,
        0,
        0,
        0,
        2.2204460492503131e-16,
        1,
        0,
        0,
        -1,
        2.2204460492503131e-16,
        0,
        0,
        0,
        0,
        1
      ],
      "name": "GLTF_SceneRootNode"
    },
    {
      "children": [
        5,
        6,
        7,
        8,
        9,
        10,
        11
      ],
      "matrix": [
        1,
        0,
        0,
        0,
        0,
        -1.685873969314855e-07,
        0.99999999999998579,
        0,
        0,
        -0.99999999999998579,
        -1.685873969314855e-07,
        0,
        0,
        0,
        0,
        1
      ],
      "name": "Fontain_2"
    },
    {
      "mesh": 0,
      "name": ""
    },
    {
      "mesh": 1,
      "name": ""
    },
    {
      "mesh": 2,
      "name": ""
    },
    {
      "mesh": 3,
      "name": ""
    },
    {
      "mesh": 4,
      "name": ""
    },
    {
      "mesh": 5,
      "name": ""
    },
    {
      "mesh": 6,
      "name": ""
    }
  ],
  "samplers": [
    {
      "magFilter": 9729,
      "minFilter": 9987,
      "wrapS": 10497,
      "wrapT": 10497
    }
  ],
  "scene": 0,
  "scenes": [
    {
      "name": "OSG_Scene",
      "nodes": [
        0
      ]
    }
  ],
  "textures": [
    {
      "sampler": 0,
      "source": 0
    },
    {
      "sampler": 0,
      "source": 1
    },
    {
      "sampler": 0,
      "source": 2
    }
  ]
}

